<?xml version="1.0" standalone="no"?>
<!DOCTYPE svg PUBLIC "-//W3C//DTD SVG 20010904//EN"
 "http://www.w3.org/TR/2001/REC-SVG-20010904/DTD/svg10.dtd">
<svg version="1.0" xmlns="http://www.w3.org/2000/svg"
 width="1024.000000pt" height="1024.000000pt" viewBox="0 0 1024.000000 1024.000000"
 preserveAspectRatio="xMidYMid meet">

<g transform="translate(0.000000,1024.000000) scale(0.100000,-0.100000)"
fill="#000000" stroke="none">
<path d="M6318 7256 c-75 -21 -145 -80 -178 -151 -29 -64 -34 -125 -15 -190
14 -48 14 -60 3 -70 -7 -7 -361 -245 -787 -528 l-774 -516 -42 34 c-55 46
-113 65 -194 65 -70 0 -137 -24 -177 -61 l-21 -19 -429 452 c-409 430 -429
453 -413 469 39 39 53 83 54 159 0 66 -4 81 -29 120 -57 91 -157 134 -259 111
-160 -35 -233 -197 -158 -346 l30 -58 -138 -151 c-75 -83 -259 -286 -407 -451
-518 -575 -488 -543 -499 -525 -16 27 -161 112 -232 137 -69 24 -93 27 -208
27 -115 0 -139 -3 -210 -27 -184 -61 -345 -227 -406 -417 -30 -92 -37 -263
-15 -362 32 -142 100 -251 230 -366 66 -58 148 -101 246 -128 87 -24 252 -24
340 -1 200 53 362 195 429 375 l22 59 617 -232 c339 -128 757 -285 928 -350
l310 -118 -4 -51 c-6 -71 13 -130 56 -178 65 -72 156 -95 255 -66 40 12 110
72 133 112 10 19 25 14 295 -91 156 -62 462 -181 679 -266 217 -85 487 -191
600 -236 l205 -80 -4 -52 c-10 -153 113 -280 260 -266 277 25 310 405 42 479
l-43 12 0 508 0 508 25 0 c61 0 149 66 181 134 28 59 32 155 10 198 -11 20
-11 29 -3 36 7 5 186 107 400 226 l387 217 46 -40 c67 -58 151 -72 235 -37 13
6 31 -13 75 -76 65 -94 144 -205 393 -556 l173 -243 -20 -22 c-47 -50 -55
-130 -19 -198 56 -106 212 -122 290 -30 71 85 52 205 -43 269 -29 20 -45 23
-95 20 -33 -2 -67 -8 -76 -12 -17 -8 -12 -14 -467 629 l-170 240 23 25 c28 30
55 90 55 124 0 22 5 24 63 30 121 13 851 75 852 73 1 -1 10 -24 20 -51 23 -63
83 -128 143 -158 69 -33 169 -31 238 5 202 104 201 394 -2 492 -58 28 -167 32
-224 7 -93 -40 -156 -119 -167 -210 -7 -61 31 -53 -378 -87 -165 -14 -347 -30
-404 -35 -145 -14 -138 -15 -151 26 -28 83 -114 144 -205 144 -126 0 -230
-114 -211 -230 3 -19 7 -44 8 -54 2 -16 -19 -32 -97 -76 -55 -31 -234 -132
-399 -224 l-299 -167 -31 29 c-36 35 -77 57 -125 67 l-34 7 6 232 c4 127 7
507 7 844 l0 612 23 0 c39 0 121 45 159 88 51 57 70 105 71 182 2 187 -176
326 -355 276z m-125 -463 c37 -42 118 -83 165 -83 l32 0 -1 -797 c-1 -439 -4
-818 -6 -843 l-5 -45 -56 -17 c-57 -17 -111 -58 -143 -107 l-16 -25 -574 236
c-316 130 -662 272 -769 316 l-194 80 -1 94 c0 75 -4 101 -21 133 l-22 40 787
526 c432 290 787 527 789 528 1 0 17 -15 35 -36z m-3189 -108 c71 -36 138 -33
237 9 11 5 106 -89 365 -361 191 -202 383 -404 426 -448 l77 -81 -29 -57 c-37
-73 -46 -134 -31 -202 23 -102 102 -187 201 -216 25 -7 46 -13 48 -14 2 -2
-105 -870 -114 -921 -5 -28 -10 -32 -46 -37 -60 -8 -129 -48 -164 -94 -18 -23
-34 -40 -36 -37 -3 2 -416 159 -918 349 -502 189 -915 346 -917 349 -3 2 0 28
6 56 20 94 10 234 -25 338 -17 49 -108 196 -144 232 l-20 20 198 218 c108 119
318 352 466 517 213 237 367 405 371 405 0 0 22 -11 49 -25z m1794 -1279 c97
-40 443 -182 767 -316 l590 -242 -3 -57 c-5 -87 12 -136 68 -192 36 -36 62
-52 104 -64 l56 -16 0 -504 0 -503 -32 -7 c-55 -12 -104 -42 -146 -90 l-41
-46 -218 87 c-193 76 -719 282 -1344 526 l-207 80 5 39 c13 91 -64 215 -148
240 -21 7 -39 14 -39 16 0 3 25 203 54 446 30 243 56 456 58 472 3 26 8 31 43
39 104 22 190 75 224 140 8 14 18 26 23 26 4 0 88 -33 186 -74z"/>
</g>
</svg>
