<svg xmlns="http://www.w3.org/2000/svg" viewBox="0 0 800 1600" width="800" height="1600">
  <rect width="800" height="1600" fill="#F8F7F5"/>

  <!-- ── HEADER ── -->
  <rect width="800" height="80" fill="#111111"/>
  <text x="40" y="30" font-family="'Helvetica Neue', Helvetica, Arial, sans-serif" font-size="11" font-weight="400" fill="#888" letter-spacing="4">TOMAZELA ESTRATÉGIA &amp; COMUNICAÇÃO</text>
  <text x="40" y="60" font-family="'Helvetica Neue', Helvetica, Arial, sans-serif" font-size="22" font-weight="600" fill="#FFFFFF" letter-spacing="1">BRAND GUIDE — MANUAL DE IDENTIDADE VISUAL</text>

  <!-- ── 01 LOGO PRINCIPAL ── -->
  <text x="40" y="116" font-family="'Helvetica Neue', Helvetica, Arial, sans-serif" font-size="10" font-weight="500" fill="#E85D0C" letter-spacing="4">01 — LOGO PRINCIPAL</text>
  <line x1="40" y1="124" x2="760" y2="124" stroke="#DDDDDD" stroke-width="1"/>

  <!-- logo on white -->
  <rect x="40" y="140" width="720" height="130" rx="8" fill="#FFFFFF" stroke="#EEEEEE" stroke-width="1"/>
  <g transform="translate(60, 158)">
    <rect x="0" y="0" width="74" height="68" rx="14" fill="none" stroke="#E85D0C" stroke-width="4.5"/>
    <path d="M16 67.5 L9 88 L32 67.5 Z" fill="#E85D0C"/>
    <circle cx="42" cy="32" r="20" fill="none" stroke="#E85D0C" stroke-width="4.5"/>
    <circle cx="42" cy="32" r="11" fill="none" stroke="#E85D0C" stroke-width="4.5"/>
    <circle cx="42" cy="32" r="3.8" fill="#E85D0C"/>
  </g>
  <text x="152" y="200" font-family="'Helvetica Neue', Helvetica, Arial, sans-serif" font-size="36" font-weight="600" fill="#1A1A1A" letter-spacing="3">TOMAZELA</text>
  <text x="154" y="222" font-family="'Helvetica Neue', Helvetica, Arial, sans-serif" font-size="11" font-weight="500" fill="#E85D0C" letter-spacing="5">ESTRATÉGIA &amp; COMUNICAÇÃO</text>
  <text x="600" y="200" font-family="'Helvetica Neue', Helvetica, Arial, sans-serif" font-size="10" fill="#AAAAAA">Versão principal</text>
  <text x="600" y="216" font-family="'Helvetica Neue', Helvetica, Arial, sans-serif" font-size="10" fill="#AAAAAA">Fundo claro</text>

  <!-- ── 02 VARIAÇÕES DE COR ── -->
  <text x="40" y="308" font-family="'Helvetica Neue', Helvetica, Arial, sans-serif" font-size="10" font-weight="500" fill="#E85D0C" letter-spacing="4">02 — VARIAÇÕES</text>
  <line x1="40" y1="316" x2="760" y2="316" stroke="#DDDDDD" stroke-width="1"/>

  <!-- dark -->
  <rect x="40" y="330" width="232" height="110" rx="8" fill="#111111"/>
  <g transform="translate(52, 344)">
    <rect x="0" y="0" width="56" height="50" rx="11" fill="none" stroke="#E85D0C" stroke-width="3.5"/>
    <path d="M12 49.5 L6 65 L24 49.5 Z" fill="#E85D0C"/>
    <circle cx="32" cy="23" r="14" fill="none" stroke="#E85D0C" stroke-width="3.5"/>
    <circle cx="32" cy="23" r="7.5" fill="none" stroke="#E85D0C" stroke-width="3.5"/>
    <circle cx="32" cy="23" r="2.8" fill="#E85D0C"/>
  </g>
  <text x="120" y="372" font-family="'Helvetica Neue', Helvetica, Arial, sans-serif" font-size="22" font-weight="600" fill="#FFFFFF" letter-spacing="2">TOMAZELA</text>
  <text x="121" y="388" font-family="'Helvetica Neue', Helvetica, Arial, sans-serif" font-size="7.5" font-weight="500" fill="#FFFFFF" letter-spacing="3.5">ESTRATÉGIA &amp; COMUNICAÇÃO</text>
  <text x="52" y="428" font-family="'Helvetica Neue', Helvetica, Arial, sans-serif" font-size="10" fill="#666">Versão escura</text>

  <!-- orange -->
  <rect x="288" y="330" width="232" height="110" rx="8" fill="#E85D0C"/>
  <g transform="translate(300, 344)">
    <rect x="0" y="0" width="56" height="50" rx="11" fill="none" stroke="#FFFFFF" stroke-width="3.5"/>
    <path d="M12 49.5 L6 65 L24 49.5 Z" fill="#FFFFFF"/>
    <circle cx="32" cy="23" r="14" fill="none" stroke="#FFFFFF" stroke-width="3.5"/>
    <circle cx="32" cy="23" r="7.5" fill="none" stroke="#FFFFFF" stroke-width="3.5"/>
    <circle cx="32" cy="23" r="2.8" fill="#FFFFFF"/>
  </g>
  <text x="368" y="372" font-family="'Helvetica Neue', Helvetica, Arial, sans-serif" font-size="22" font-weight="600" fill="#FFFFFF" letter-spacing="2">TOMAZELA</text>
  <text x="369" y="388" font-family="'Helvetica Neue', Helvetica, Arial, sans-serif" font-size="7.5" font-weight="500" fill="#FFFFFF" letter-spacing="3.5">ESTRATÉGIA &amp; COMUNICAÇÃO</text>
  <text x="300" y="428" font-family="'Helvetica Neue', Helvetica, Arial, sans-serif" font-size="10" fill="#c44a00">Versão laranja</text>

  <!-- mono -->
  <rect x="536" y="330" width="224" height="110" rx="8" fill="#FFFFFF" stroke="#EEEEEE" stroke-width="1"/>
  <g transform="translate(548, 344)">
    <rect x="0" y="0" width="56" height="50" rx="11" fill="none" stroke="#1A1A1A" stroke-width="3.5"/>
    <path d="M12 49.5 L6 65 L24 49.5 Z" fill="#1A1A1A"/>
    <circle cx="32" cy="23" r="14" fill="none" stroke="#1A1A1A" stroke-width="3.5"/>
    <circle cx="32" cy="23" r="7.5" fill="none" stroke="#1A1A1A" stroke-width="3.5"/>
    <circle cx="32" cy="23" r="2.8" fill="#1A1A1A"/>
  </g>
  <text x="616" y="372" font-family="'Helvetica Neue', Helvetica, Arial, sans-serif" font-size="22" font-weight="600" fill="#1A1A1A" letter-spacing="2">TOMAZELA</text>
  <text x="617" y="388" font-family="'Helvetica Neue', Helvetica, Arial, sans-serif" font-size="7.5" font-weight="500" fill="#1A1A1A" letter-spacing="3.5">ESTRATÉGIA &amp; COMUNICAÇÃO</text>
  <text x="548" y="428" font-family="'Helvetica Neue', Helvetica, Arial, sans-serif" font-size="10" fill="#AAAAAA">Versão monochrome</text>

  <!-- ── 03 SÍMBOLO ISOLADO ── -->
  <text x="40" y="468" font-family="'Helvetica Neue', Helvetica, Arial, sans-serif" font-size="10" font-weight="500" fill="#E85D0C" letter-spacing="4">03 — SÍMBOLO ISOLADO</text>
  <line x1="40" y1="476" x2="760" y2="476" stroke="#DDDDDD" stroke-width="1"/>

  <!-- symbols row -->
  <!-- white bg -->
  <rect x="40" y="490" width="164" height="164" rx="8" fill="#FFFFFF" stroke="#EEEEEE" stroke-width="1"/>
  <g transform="translate(70, 514)">
    <rect x="0" y="0" width="104" height="94" rx="18" fill="none" stroke="#E85D0C" stroke-width="5.5"/>
    <path d="M22 93 L12 118 L44 93 Z" fill="#E85D0C"/>
    <circle cx="58" cy="44" r="28" fill="none" stroke="#E85D0C" stroke-width="5.5"/>
    <circle cx="58" cy="44" r="15" fill="none" stroke="#E85D0C" stroke-width="5.5"/>
    <circle cx="58" cy="44" r="5.5" fill="#E85D0C"/>
  </g>

  <!-- dark bg -->
  <rect x="220" y="490" width="164" height="164" rx="8" fill="#111111"/>
  <g transform="translate(250, 514)">
    <rect x="0" y="0" width="104" height="94" rx="18" fill="none" stroke="#E85D0C" stroke-width="5.5"/>
    <path d="M22 93 L12 118 L44 93 Z" fill="#E85D0C"/>
    <circle cx="58" cy="44" r="28" fill="none" stroke="#E85D0C" stroke-width="5.5"/>
    <circle cx="58" cy="44" r="15" fill="none" stroke="#E85D0C" stroke-width="5.5"/>
    <circle cx="58" cy="44" r="5.5" fill="#E85D0C"/>
  </g>

  <!-- orange bg -->
  <rect x="400" y="490" width="164" height="164" rx="8" fill="#E85D0C"/>
  <g transform="translate(430, 514)">
    <rect x="0" y="0" width="104" height="94" rx="18" fill="none" stroke="#FFFFFF" stroke-width="5.5"/>
    <path d="M22 93 L12 118 L44 93 Z" fill="#FFFFFF"/>
    <circle cx="58" cy="44" r="28" fill="none" stroke="#FFFFFF" stroke-width="5.5"/>
    <circle cx="58" cy="44" r="15" fill="none" stroke="#FFFFFF" stroke-width="5.5"/>
    <circle cx="58" cy="44" r="5.5" fill="#FFFFFF"/>
  </g>

  <!-- avatar round -->
  <rect x="580" y="490" width="164" height="164" rx="8" fill="#F0F0F0"/>
  <circle cx="662" cy="572" r="70" fill="#E85D0C"/>
  <g transform="translate(614, 530)">
    <rect x="0" y="0" width="96" height="86" rx="16" fill="none" stroke="#FFFFFF" stroke-width="5"/>
    <path d="M20 85 L11 108 L40 85 Z" fill="#FFFFFF"/>
    <circle cx="52" cy="40" r="24" fill="none" stroke="#FFFFFF" stroke-width="5"/>
    <circle cx="52" cy="40" r="13" fill="none" stroke="#FFFFFF" stroke-width="5"/>
    <circle cx="52" cy="40" r="4.8" fill="#FFFFFF"/>
  </g>
  <text x="662" y="672" text-anchor="middle" font-family="'Helvetica Neue', Helvetica, Arial, sans-serif" font-size="10" fill="#AAAAAA">Avatar circular</text>

  <!-- ── 04 PALETA ── -->
  <text x="40" y="700" font-family="'Helvetica Neue', Helvetica, Arial, sans-serif" font-size="10" font-weight="500" fill="#E85D0C" letter-spacing="4">04 — PALETA DE CORES</text>
  <line x1="40" y1="708" x2="760" y2="708" stroke="#DDDDDD" stroke-width="1"/>

  <!-- swatches -->
  <rect x="40" y="722" width="160" height="90" rx="8" fill="#E85D0C"/>
  <text x="52" y="782" font-family="'Helvetica Neue', Helvetica, Arial, sans-serif" font-size="12" font-weight="600" fill="#FFFFFF">Laranja</text>
  <text x="52" y="798" font-family="'Helvetica Neue', Helvetica, Arial, sans-serif" font-size="10" fill="rgba(255,255,255,0.7)">#E85D0C</text>

  <rect x="216" y="722" width="160" height="90" rx="8" fill="#1A1A1A"/>
  <text x="228" y="782" font-family="'Helvetica Neue', Helvetica, Arial, sans-serif" font-size="12" font-weight="600" fill="#FFFFFF">Preto</text>
  <text x="228" y="798" font-family="'Helvetica Neue', Helvetica, Arial, sans-serif" font-size="10" fill="rgba(255,255,255,0.5)">#1A1A1A</text>

  <rect x="392" y="722" width="160" height="90" rx="8" fill="#FFFFFF" stroke="#EEEEEE" stroke-width="1"/>
  <text x="404" y="782" font-family="'Helvetica Neue', Helvetica, Arial, sans-serif" font-size="12" font-weight="600" fill="#1A1A1A">Branco</text>
  <text x="404" y="798" font-family="'Helvetica Neue', Helvetica, Arial, sans-serif" font-size="10" fill="#AAAAAA">#FFFFFF</text>

  <rect x="568" y="722" width="192" height="90" rx="8" fill="#F8F7F5" stroke="#EEEEEE" stroke-width="1"/>
  <text x="580" y="782" font-family="'Helvetica Neue', Helvetica, Arial, sans-serif" font-size="12" font-weight="600" fill="#1A1A1A">Off-white</text>
  <text x="580" y="798" font-family="'Helvetica Neue', Helvetica, Arial, sans-serif" font-size="10" fill="#AAAAAA">#F8F7F5</text>

  <!-- ── 05 TIPOGRAFIA ── -->
  <text x="40" y="852" font-family="'Helvetica Neue', Helvetica, Arial, sans-serif" font-size="10" font-weight="500" fill="#E85D0C" letter-spacing="4">05 — TIPOGRAFIA</text>
  <line x1="40" y1="860" x2="760" y2="860" stroke="#DDDDDD" stroke-width="1"/>

  <rect x="40" y="874" width="720" height="160" rx="8" fill="#FFFFFF" stroke="#EEEEEE" stroke-width="1"/>

  <text x="60" y="910" font-family="'Helvetica Neue', Helvetica, Arial, sans-serif" font-size="36" font-weight="600" fill="#1A1A1A" letter-spacing="2">TOMAZELA</text>
  <text x="62" y="928" font-family="'Helvetica Neue', Helvetica, Arial, sans-serif" font-size="11" fill="#AAAAAA">Helvetica Neue — SemiBold 600 — tracking +0.06em — Wordmark</text>

  <line x1="60" y1="944" x2="740" y2="944" stroke="#F0F0F0" stroke-width="1"/>

  <text x="60" y="968" font-family="'Helvetica Neue', Helvetica, Arial, sans-serif" font-size="14" font-weight="500" fill="#E85D0C" letter-spacing="5">ESTRATÉGIA &amp; COMUNICAÇÃO</text>
  <text x="62" y="986" font-family="'Helvetica Neue', Helvetica, Arial, sans-serif" font-size="11" fill="#AAAAAA">Helvetica Neue — Medium 500 — tracking +0.14em — Tagline</text>

  <line x1="60" y1="1000" x2="740" y2="1000" stroke="#F0F0F0" stroke-width="1"/>

  <text x="60" y="1020" font-family="'Helvetica Neue', Helvetica, Arial, sans-serif" font-size="14" fill="#1A1A1A">Texto corrido em comunicações institucionais</text>
  <text x="62" y="1018" font-family="'Helvetica Neue', Helvetica, Arial, sans-serif" font-size="11" fill="#AAAAAA"> </text>
  <text x="62" y="1028" font-family="'Helvetica Neue', Helvetica, Arial, sans-serif" font-size="11" fill="#AAAAAA">Helvetica Neue — Regular 400 — Body text</text>

  <!-- ── 06 ÁREA DE PROTEÇÃO ── -->
  <text x="40" y="1076" font-family="'Helvetica Neue', Helvetica, Arial, sans-serif" font-size="10" font-weight="500" fill="#E85D0C" letter-spacing="4">06 — ÁREA DE PROTEÇÃO E TAMANHO MÍNIMO</text>
  <line x1="40" y1="1084" x2="760" y2="1084" stroke="#DDDDDD" stroke-width="1"/>

  <rect x="40" y="1098" width="360" height="200" rx="8" fill="#FFFFFF" stroke="#EEEEEE" stroke-width="1"/>

  <!-- clear space demo -->
  <rect x="100" y="1128" width="240" height="140" rx="4" fill="none" stroke="#E85D0C" stroke-width="0.8" stroke-dasharray="5,3"/>
  <g transform="translate(130, 1148)">
    <rect x="0" y="0" width="56" height="50" rx="10" fill="none" stroke="#E85D0C" stroke-width="3"/>
    <path d="M12 49.5 L6 63 L24 49.5 Z" fill="#E85D0C"/>
    <circle cx="32" cy="23" r="14" fill="none" stroke="#E85D0C" stroke-width="3"/>
    <circle cx="32" cy="7.5" r="7.5" fill="none" stroke="#E85D0C" stroke-width="3"/>
    <circle cx="32" cy="23" r="2.8" fill="#E85D0C"/>
    <text x="70" y="20" font-family="'Helvetica Neue', Helvetica, Arial, sans-serif" font-size="18" font-weight="600" fill="#1A1A1A" letter-spacing="1.5">TOMAZELA</text>
    <text x="71" y="36" font-family="'Helvetica Neue', Helvetica, Arial, sans-serif" font-size="6.5" font-weight="500" fill="#E85D0C" letter-spacing="2.5">ESTRATÉGIA &amp; COMUNICAÇÃO</text>
  </g>
  <!-- arrows clear space -->
  <line x1="100" y1="1158" x2="100" y2="1148" stroke="#AAAAAA" stroke-width="0.8" marker-end="url(#a1)"/>
  <text x="56" y="1156" font-family="'Helvetica Neue', Helvetica, Arial, sans-serif" font-size="9" fill="#AAAAAA">x = altura</text>
  <text x="60" y="1168" font-family="'Helvetica Neue', Helvetica, Arial, sans-serif" font-size="9" fill="#AAAAAA">do símbolo</text>
  <text x="50" y="1290" font-family="'Helvetica Neue', Helvetica, Arial, sans-serif" font-size="10" fill="#AAAAAA">Área de proteção mínima</text>
  <text x="50" y="1304" font-family="'Helvetica Neue', Helvetica, Arial, sans-serif" font-size="10" fill="#AAAAAA">= altura do símbolo em todos os lados</text>

  <!-- min size -->
  <rect x="420" y="1098" width="340" height="200" rx="8" fill="#FFFFFF" stroke="#EEEEEE" stroke-width="1"/>
  <text x="440" y="1126" font-family="'Helvetica Neue', Helvetica, Arial, sans-serif" font-size="11" fill="#AAAAAA" letter-spacing="2">TAMANHO MÍNIMO</text>

  <!-- 80px -->
  <g transform="translate(440, 1140)">
    <rect x="0" y="0" width="22" height="20" rx="4" fill="none" stroke="#E85D0C" stroke-width="1.5"/>
    <path d="M5 19.5 L2 26 L10 19.5 Z" fill="#E85D0C"/>
    <circle cx="13" cy="9" r="5.5" fill="none" stroke="#E85D0C" stroke-width="1.5"/>
    <circle cx="13" cy="9" r="3" fill="none" stroke="#E85D0C" stroke-width="1.5"/>
    <circle cx="13" cy="9" r="1.1" fill="#E85D0C"/>
  </g>
  <text x="476" y="1156" font-family="'Helvetica Neue', Helvetica, Arial, sans-serif" font-size="11" fill="#1A1A1A" font-weight="500">80px — Digital mínimo</text>

  <!-- 120px -->
  <g transform="translate(440, 1186)">
    <rect x="0" y="0" width="34" height="30" rx="6" fill="none" stroke="#E85D0C" stroke-width="2"/>
    <path d="M7 29.5 L4 40 L14 29.5 Z" fill="#E85D0C"/>
    <circle cx="20" cy="14" r="8" fill="none" stroke="#E85D0C" stroke-width="2"/>
    <circle cx="20" cy="14" r="4.5" fill="none" stroke="#E85D0C" stroke-width="2"/>
    <circle cx="20" cy="14" r="1.7" fill="#E85D0C"/>
  </g>
  <text x="490" y="1204" font-family="'Helvetica Neue', Helvetica, Arial, sans-serif" font-size="11" fill="#1A1A1A" font-weight="500">120px — Impresso mínimo</text>

  <!-- 200px -->
  <g transform="translate(440, 1236)">
    <rect x="0" y="0" width="52" height="46" rx="9" fill="none" stroke="#E85D0C" stroke-width="3"/>
    <path d="M11 45.5 L6 60 L22 45.5 Z" fill="#E85D0C"/>
    <circle cx="30" cy="21" r="12" fill="none" stroke="#E85D0C" stroke-width="3"/>
    <circle cx="30" cy="21" r="6.5" fill="none" stroke="#E85D0C" stroke-width="3"/>
    <circle cx="30" cy="21" r="2.4" fill="#E85D0C"/>
  </g>
  <text x="506" y="1260" font-family="'Helvetica Neue', Helvetica, Arial, sans-serif" font-size="11" fill="#1A1A1A" font-weight="500">200px+ — Uso preferencial</text>

  <!-- ── 07 USO CORRETO E INCORRETO ── -->
  <text x="40" y="1338" font-family="'Helvetica Neue', Helvetica, Arial, sans-serif" font-size="10" font-weight="500" fill="#E85D0C" letter-spacing="4">07 — USO CORRETO E INCORRETO</text>
  <line x1="40" y1="1346" x2="760" y2="1346" stroke="#DDDDDD" stroke-width="1"/>

  <!-- CORRETO -->
  <text x="52" y="1370" font-family="'Helvetica Neue', Helvetica, Arial, sans-serif" font-size="10" fill="#0F6E56" letter-spacing="3">✓ CORRETO</text>
  <rect x="40" y="1378" width="220" height="80" rx="8" fill="#FFFFFF" stroke="#EEEEEE" stroke-width="1"/>
  <g transform="translate(54, 1394)">
    <rect x="0" y="0" width="40" height="36" rx="7" fill="none" stroke="#E85D0C" stroke-width="2.5"/>
    <path d="M8 35.5 L4 47 L18 35.5 Z" fill="#E85D0C"/>
    <circle cx="23" cy="16" r="10" fill="none" stroke="#E85D0C" stroke-width="2.5"/>
    <circle cx="23" cy="16" r="5.5" fill="none" stroke="#E85D0C" stroke-width="2.5"/>
    <circle cx="23" cy="16" r="2" fill="#E85D0C"/>
  </g>
  <text x="106" y="1412" font-family="'Helvetica Neue', Helvetica, Arial, sans-serif" font-size="16" font-weight="600" fill="#1A1A1A" letter-spacing="1.5">TOMAZELA</text>
  <text x="107" y="1428" font-family="'Helvetica Neue', Helvetica, Arial, sans-serif" font-size="6" font-weight="500" fill="#E85D0C" letter-spacing="2.5">ESTRATÉGIA &amp; COMUNICAÇÃO</text>
  <text x="52" y="1452" font-family="'Helvetica Neue', Helvetica, Arial, sans-serif" font-size="10" fill="#0F6E56">Cores e proporções corretas</text>

  <!-- INCORRETO 1 — deformado -->
  <text x="282" y="1370" font-family="'Helvetica Neue', Helvetica, Arial, sans-serif" font-size="10" fill="#993C1D" letter-spacing="3">✗ NÃO DEFORMAR</text>
  <rect x="270" y="1378" width="220" height="80" rx="8" fill="#FFFFFF" stroke="#EEEEEE" stroke-width="1"/>
  <g transform="translate(284, 1394) scale(0.8, 1.3)">
    <rect x="0" y="0" width="40" height="36" rx="7" fill="none" stroke="#E85D0C" stroke-width="2.5"/>
    <path d="M8 35.5 L4 47 L18 35.5 Z" fill="#E85D0C"/>
    <circle cx="23" cy="16" r="10" fill="none" stroke="#E85D0C" stroke-width="2.5"/>
    <circle cx="23" cy="16" r="5.5" fill="none" stroke="#E85D0C" stroke-width="2.5"/>
    <circle cx="23" cy="16" r="2" fill="#E85D0C"/>
  </g>
  <text x="336" y="1412" font-family="'Helvetica Neue', Helvetica, Arial, sans-serif" font-size="16" font-weight="600" fill="#1A1A1A" letter-spacing="1.5">TOMAZELA</text>
  <line x1="270" y1="1378" x2="490" y2="1458" stroke="#993C1D" stroke-width="1.5" opacity="0.5"/>
  <line x1="490" y1="1378" x2="270" y2="1458" stroke="#993C1D" stroke-width="1.5" opacity="0.5"/>

  <!-- INCORRETO 2 — cor errada -->
  <text x="514" y="1370" font-family="'Helvetica Neue', Helvetica, Arial, sans-serif" font-size="10" fill="#993C1D" letter-spacing="3">✗ NÃO ALTERAR COR</text>
  <rect x="502" y="1378" width="238" height="80" rx="8" fill="#FFFFFF" stroke="#EEEEEE" stroke-width="1"/>
  <g transform="translate(516, 1394)">
    <rect x="0" y="0" width="40" height="36" rx="7" fill="none" stroke="#5B4FCF" stroke-width="2.5"/>
    <path d="M8 35.5 L4 47 L18 35.5 Z" fill="#5B4FCF"/>
    <circle cx="23" cy="16" r="10" fill="none" stroke="#5B4FCF" stroke-width="2.5"/>
    <circle cx="23" cy="16" r="5.5" fill="none" stroke="#5B4FCF" stroke-width="2.5"/>
    <circle cx="23" cy="16" r="2" fill="#5B4FCF"/>
  </g>
  <text x="568" y="1412" font-family="'Helvetica Neue', Helvetica, Arial, sans-serif" font-size="16" font-weight="600" fill="#5B4FCF" letter-spacing="1.5">TOMAZELA</text>
  <text x="569" y="1428" font-family="'Helvetica Neue', Helvetica, Arial, sans-serif" font-size="6" font-weight="500" fill="#5B4FCF" letter-spacing="2.5">ESTRATÉGIA &amp; COMUNICAÇÃO</text>
  <line x1="502" y1="1378" x2="740" y2="1458" stroke="#993C1D" stroke-width="1.5" opacity="0.5"/>
  <line x1="740" y1="1378" x2="502" y2="1458" stroke="#993C1D" stroke-width="1.5" opacity="0.5"/>

  <!-- FOOTER -->
  <rect x="0" y="1560" width="800" height="40" fill="#111111"/>
  <text x="40" y="1585" font-family="'Helvetica Neue', Helvetica, Arial, sans-serif" font-size="10" fill="#666" letter-spacing="2">TOMAZELA ESTRATÉGIA &amp; COMUNICAÇÃO — BRAND GUIDE 2025</text>
  <text x="660" y="1585" font-family="'Helvetica Neue', Helvetica, Arial, sans-serif" font-size="10" fill="#666">andre@andretomazela.com.br</text>
</svg>
